<?xml-stylesheet type="text/css" href="../css/style.css"?>
<svg width="17" height="27" viewBox="0 0 17 27" fill="none" xmlns="http://www.w3.org/2000/svg">
<path d="M15.8242 14.7461C16.1172 14.5117 16.293 14.1602 16.293 13.75C16.293 13.3984 16.1172 13.0469 15.8242 12.7539L4.45703 1.38672C4.16406 1.15234 3.8125 0.976562 3.46094 0.976562C3.05078 0.976562 2.69922 1.15234 2.46484 1.38672L1.17578 2.67578C0.882812 2.96875 0.707031 3.32031 0.707031 3.67188C0.707031 4.08203 0.824219 4.43359 1.11719 4.66797L10.1992 13.75L1.11719 22.832C0.824219 23.125 0.707031 23.4766 0.707031 23.8281C0.707031 24.2383 0.882812 24.5898 1.17578 24.8242L2.46484 26.1133C2.69922 26.4062 3.05078 26.5234 3.46094 26.5234C3.8125 26.5234 4.16406 26.4062 4.45703 26.1133L15.8242 14.7461Z" fill="#DCDCDC"/>
</svg>
