<svg width="16" height="12" viewBox="0 0 16 12" fill="none" xmlns="http://www.w3.org/2000/svg">
<path d="M0.3125 3.96875C1.0625 4.5625 2.6875 5.75 5.125 7.5L5.4375 7.75C5.9375 8.125 6.3125 8.40625 6.625 8.5625C7.125 8.875 7.59375 9 8 9C8.4375 9 8.875 8.875 9.375 8.59375C9.6875 8.4375 10.0625 8.15625 10.5625 7.78125L10.875 7.5C13.4062 5.6875 15 4.5 15.6875 3.96875C15.75 3.9375 15.8438 3.9375 15.9062 3.96875C15.9688 4 16 4.0625 16 4.125V10.5C16 10.9375 15.875 11.2812 15.5625 11.5625C15.2812 11.875 14.9375 12 14.5 12H1.5C1.09375 12 0.75 11.875 0.4375 11.5625C0.15625 11.2812 0 10.9375 0 10.5V4.125C0 4.0625 0.0625 4 0.125 3.9375C0.1875 3.90625 0.25 3.90625 0.3125 3.96875ZM8 8C8.28125 8 8.625 7.875 9 7.625C9.25 7.5 9.5625 7.28125 9.96875 6.9375L10.2812 6.71875C12.8438 4.84375 14.5938 3.5625 15.5 2.84375L15.7188 2.6875C15.9062 2.5625 16 2.34375 16 2.09375V1.5C16 1.09375 15.875 0.75 15.5625 0.4375C15.2812 0.15625 14.9375 0 14.5 0H1.5C1.09375 0 0.75 0.15625 0.4375 0.4375C0.15625 0.75 0 1.09375 0 1.5V2.09375C0 2.34375 0.09375 2.5625 0.28125 2.6875L0.4375 2.8125C1.34375 3.53125 3.09375 4.84375 5.71875 6.71875L6.03125 6.9375C6.46875 7.28125 6.78125 7.5 7 7.625C7.40625 7.875 7.75 8 8 8Z" fill="#FFEE53"/>
</svg>
