<?xml version="1.0" encoding="utf-8"?>
<svg version="1.1" id="fork" xmlns="http://www.w3.org/2000/svg" xmlns:xlink="http://www.w3.org/1999/xlink" x="0px" y="0px"
	 viewBox="0 0 1280 312" style="enable-background:new 0 0 1280 312;" xml:space="preserve">
<g transform="translate(0.000000,1280.000000) scale(0.100000,-0.100000)">
	<path d="M12778.7,12652.6c-26,56-63,95-115,123l-40,22l-2010,3c-1759,2-2021,0-2098-13c-305-53-541-229-667-497
		c-42-91-80-227-80-293c0-22-3-50-6-63l-6-22h-3502c-2119,0-3538-4-3596-10c-128-13-199-32-297-81c-153-77-275-218-330-383
		c-23-70-27-98-27-206c0-93,4-140,18-184c78-257,265-424,538-480c70-14,421-16,3637-16h3560l5-33c3-17,8-59,11-91
		c8-66,44-185,76-249c95-186,283-358,479-438c154-62,23-59,2241-59c1505,0,2032,3,2060,12c52,15,117,73,140,122c42,92,11,231-61,285
		c-73,53,3,51-1571,51h-1459v435v435h1453c1006,0,1464,3,1492,11c59,16,113,57,143,108c22,38,27,58,27,111c-1,96-44,161-135,204
		l-45,21h-1467h-1468v417v418h1418c925,0,1440,4,1482,10c130,21,208,101,217,222C12798.7,12593.6,12794.7,12617.6,12778.7,12652.6z"
		fill="white"
	/>
</g>
</svg>
