<svg width="23" height="24" viewBox="0 0 23 24" fill="none" xmlns="http://www.w3.org/2000/svg">
<path d="M11.5 6.41016C12.5156 6.41016 13.4805 6.71484 14.3945 7.22266C15.3086 7.73047 16.0195 8.44141 16.5273 9.35547C17.0352 10.2695 17.3398 11.2344 17.3398 12.25C17.3398 13.3164 17.0352 14.2812 16.5273 15.1953C16.0195 16.1094 15.3086 16.8203 14.3945 17.3281C13.4805 17.8359 12.5156 18.0898 11.5 18.0898C10.4336 18.0898 9.46875 17.8359 8.55469 17.3281C7.64062 16.8203 6.92969 16.1094 6.42188 15.1953C5.91406 14.2812 5.66016 13.3164 5.66016 12.25C5.66016 11.2344 5.91406 10.2695 6.42188 9.35547C6.92969 8.44141 7.64062 7.73047 8.55469 7.22266C9.46875 6.71484 10.4336 6.41016 11.5 6.41016ZM11.5 16.0586C12.5156 16.0586 13.4297 15.7031 14.1914 14.9414C14.9023 14.2305 15.3086 13.3164 15.3086 12.25C15.3086 11.2344 14.9023 10.3203 14.1914 9.55859C13.4297 8.84766 12.5156 8.44141 11.5 8.44141C10.4336 8.44141 9.51953 8.84766 8.80859 9.55859C8.04688 10.3203 7.69141 11.2344 7.69141 12.25C7.69141 13.3164 8.04688 14.2305 8.80859 14.9414C9.51953 15.7031 10.4336 16.0586 11.5 16.0586ZM18.9648 6.15625C18.9648 5.80078 18.8125 5.49609 18.5586 5.19141C18.2539 4.9375 17.9492 4.78516 17.5938 4.78516C17.1875 4.78516 16.8828 4.9375 16.6289 5.19141C16.3242 5.49609 16.2227 5.80078 16.2227 6.15625C16.2227 6.5625 16.3242 6.86719 16.6289 7.12109C16.8828 7.42578 17.1875 7.52734 17.5938 7.52734C17.9492 7.52734 18.2539 7.42578 18.5078 7.12109C18.7617 6.86719 18.9141 6.5625 18.9648 6.15625ZM22.8242 7.52734C22.8242 8.49219 22.875 10.0664 22.875 12.25C22.875 14.4844 22.8242 16.0586 22.7734 17.0234C22.7227 17.9883 22.5703 18.8008 22.3672 19.5117C22.0625 20.375 21.5547 21.1367 20.9453 21.7461C20.3359 22.3555 19.5742 22.8125 18.7617 23.1172C18.0508 23.3711 17.1875 23.5234 16.2227 23.5742C15.2578 23.625 13.6836 23.625 11.5 23.625C9.26562 23.625 7.69141 23.625 6.72656 23.5742C5.76172 23.5234 4.94922 23.3711 4.23828 23.0664C3.375 22.8125 2.61328 22.3555 2.00391 21.7461C1.39453 21.1367 0.9375 20.375 0.632812 19.5117C0.378906 18.8008 0.226562 17.9883 0.175781 17.0234C0.125 16.0586 0.125 14.4844 0.125 12.25C0.125 10.0664 0.125 8.49219 0.175781 7.52734C0.226562 6.5625 0.378906 5.69922 0.632812 4.98828C0.9375 4.17578 1.39453 3.41406 2.00391 2.80469C2.61328 2.19531 3.375 1.6875 4.23828 1.38281C4.94922 1.17969 5.76172 1.02734 6.72656 0.976562C7.69141 0.925781 9.26562 0.875 11.5 0.875C13.6836 0.875 15.2578 0.925781 16.2227 0.976562C17.1875 1.02734 18.0508 1.17969 18.7617 1.38281C19.5742 1.6875 20.3359 2.19531 20.9453 2.80469C21.5547 3.41406 22.0625 4.17578 22.3672 4.98828C22.5703 5.69922 22.7227 6.5625 22.8242 7.52734ZM20.3867 18.9531C20.5898 18.3945 20.6914 17.4805 20.793 16.2109C20.793 15.5 20.8438 14.4336 20.8438 13.0625V11.4375C20.8438 10.0664 20.793 9 20.793 8.28906C20.6914 7.01953 20.5898 6.10547 20.3867 5.54688C19.9805 4.53125 19.2188 3.76953 18.2031 3.36328C17.6445 3.16016 16.7305 3.05859 15.4609 2.95703C14.6992 2.95703 13.6328 2.90625 12.3125 2.90625H10.6875C9.31641 2.90625 8.25 2.95703 7.53906 2.95703C6.26953 3.05859 5.35547 3.16016 4.79688 3.36328C3.73047 3.76953 3.01953 4.53125 2.61328 5.54688C2.41016 6.10547 2.25781 7.01953 2.20703 8.28906C2.15625 9.05078 2.15625 10.1172 2.15625 11.4375V13.0625C2.15625 14.4336 2.15625 15.5 2.20703 16.2109C2.25781 17.4805 2.41016 18.3945 2.61328 18.9531C3.01953 20.0195 3.78125 20.7305 4.79688 21.1367C5.35547 21.3398 6.26953 21.4922 7.53906 21.543C8.25 21.5938 9.31641 21.5938 10.6875 21.5938H12.3125C13.6836 21.5938 14.75 21.5938 15.4609 21.543C16.7305 21.4922 17.6445 21.3398 18.2031 21.1367C19.2188 20.7305 19.9805 19.9688 20.3867 18.9531Z" fill="white"/>
</svg>
