<svg width="23" height="23" viewBox="0 0 23 23" fill="none" xmlns="http://www.w3.org/2000/svg">
    <path d="M20.1147 19.404C20.1147 19.8973 19.7229 20.2891 19.2296 20.2891H3.71959C3.22628 20.2891 2.83454 19.8973 2.83454 19.404V10.0022H4.8803C4.69169 10.5971 4.59012 11.25 4.59012 11.9029C4.59012 15.6172 7.69503 18.6205 11.5109 18.6205C15.3412 18.6205 18.4462 15.6172 18.4462 11.9029C18.4462 11.25 18.3446 10.5971 18.156 10.0022H20.1147V19.404ZM15.9941 11.6708C15.9941 14.0647 13.9919 16.0089 11.5109 16.0089C9.04436 16.0089 7.04213 14.0647 7.04213 11.6708C7.04213 9.27679 9.04436 7.33259 11.5109 7.33259C13.9919 7.33259 15.9941 9.27679 15.9941 11.6708ZM20.1147 6.44754C20.1147 6.99888 19.6649 7.44866 19.1136 7.44866H16.589C16.0377 7.44866 15.5879 6.99888 15.5879 6.44754V4.05357C15.5879 3.50223 16.0377 3.05245 16.589 3.05245H19.1136C19.6649 3.05245 20.1147 3.50223 20.1147 4.05357V6.44754ZM22.6392 3.42969C22.6392 1.86272 21.3479 0.571427 19.781 0.571427H3.21177C1.64481 0.571427 0.353516 1.86272 0.353516 3.42969V19.9989C0.353516 21.5658 1.64481 22.8571 3.21177 22.8571H19.781C21.3479 22.8571 22.6392 21.5658 22.6392 19.9989V3.42969Z" fill="white"/>
</svg>