<?xml version="1.0" encoding="utf-8"?>
<!-- Generator: Adobe Illustrator 22.1.0, SVG Export Plug-In . SVG Version: 6.00 Build 0)  -->
<svg version="1.1" id="knife" xmlns="http://www.w3.org/2000/svg" xmlns:xlink="http://www.w3.org/1999/xlink" x="0px" y="0px"
	 viewBox="0 0 1280 209" style="enable-background:new 0 0 1280 209;" xml:space="preserve">
<g transform="translate(0.000000,1280.000000) scale(0.100000,-0.100000)">
	<path d="M12773.3,11900.7c-2,11-9,45-15,75c-53,257-208,488-427,634c-164,108-344,166-579,186c-74,6-1360,10-3405,10h-3288v-365
		v-365l-2237-2l-2238-3l-75-23c-125-39-206-87-295-177c-135-134-195-282-195-479c0-317,184-558,497-648l78-23h5605
		c5287,0,5610,1,5697,17c366,70,648,278,788,581c63,136,86,242,90,412C12776.3,11812.7,12776.3,11889.7,12773.3,11900.7z"
		fill="white"
	/>
</g>
</svg>
