<svg width="257" height="100" viewBox="0 0 257 100" fill="none" xmlns="http://www.w3.org/2000/svg">
<g clip-path="url(#clip0)">
<path d="M89.979 16.1509C118.148 -14.2026 170.823 0.607495 178.107 40.7439C184.238 74.5793 156.44 102.967 121.924 99.7523C82.7149 96.0994 60.3202 48.1146 89.979 16.1509ZM79.6416 55.9846C82.5564 85.6284 116.517 105.908 146.616 93.4571C163.514 86.4639 176.52 70.1616 176.203 49.2077C175.862 26.5984 165.351 19.3241 161.455 15.5886C130.829 -13.7838 75.0069 8.85694 79.6416 55.9846Z" fill="white"/>
<path d="M246.453 86.7568C242.533 92.8201 241.192 96.0561 235.584 94.7802C234.635 94.5639 183.867 80.383 179.023 78.7177C175.718 77.5794 176.447 74.4554 179.072 72.0332C188.655 63.1448 190.169 46.9841 185.431 38.9863C179.512 29.0127 181.747 33.0764 178.46 29.1562C174.42 24.3217 175.42 23.2148 181.189 21.2331C236.375 2.27665 238.317 1.37621 240.435 4.03821C261.805 30.8391 261.038 64.2006 246.453 86.7568ZM179.631 75.9437C182.27 77.5676 176.425 75.0314 199.337 81.5999C200.427 81.9125 201.479 82.3569 202.571 82.6518C238.039 92.2853 238.436 93.1425 239.379 91.9471C240.522 90.5326 241.58 89.0529 242.549 87.5157C250.311 74.8761 251.228 70.2697 252.675 62.8912C255.205 49.9961 252.894 33.2534 250.099 26.3035C245.321 14.4129 238.967 6.41317 238.846 6.20871C237.964 4.76761 237.479 5.38297 226.699 9.06141C179.564 25.1514 188.799 21.1564 178.747 25.2634C193.446 38.1409 195.735 60.1132 179.631 75.9456V75.9437Z" fill="white"/>
<path d="M0.0633849 50.5269C0.0633849 49.2077 -1.04624 36.804 6.05142 21.2056C7.75549 17.4583 14.5401 4.03037 18.614 3.70794C20.9462 3.52117 39.6177 10.3177 77.3788 22.8865C83.6799 24.9843 78.0347 29.4472 75.2606 32.5712C70.933 37.441 68.6781 44.3241 68.2263 50.5623C67.8697 55.5147 69.6946 64.4228 75.2744 70.9382C83.0954 80.0704 84.5537 77.4732 42.1322 89.5171C23.5756 94.7861 17.8769 98.7378 13.4483 92.5841C7.55536 84.3819 1.89824 71.7757 0.531014 61.2398L0.0633849 50.5269ZM76.8814 26.6967C74.8425 25.2929 76.0552 25.3205 66.9582 22.2653C13.7217 4.3587 19.2857 5.06253 16.9218 8.45393C5.26477 25.1652 5.46886 30.0232 4.08183 37.034C1.20868 51.563 3.03561 69.2238 10.916 82.9663C16.9773 93.5396 17.7481 93.4256 19.8782 93.0265C19.8782 93.0265 72.8214 78.1122 76.7586 76.8874C61.1168 60.8446 62.4642 40.7203 76.8814 26.6967Z" fill="white"/>
<path d="M112.808 73.2443C114.847 71.9979 117.149 72.4933 118.417 73.7732C120.042 75.4109 121.786 76.9405 123.391 78.5841C124.201 79.4098 125.037 78.8672 125.642 78.995C125.422 78.0119 125.202 77.1135 125.022 76.2091C124.708 74.6363 126.531 73.3702 127.756 73.4567C128.675 73.5176 129.597 73.8656 130.463 74.2195C131.057 74.4652 131.255 76.1088 130.835 77.0014C130.537 77.5648 130.191 78.1022 129.801 78.6076C129.603 78.8986 129.335 79.1522 128.992 79.5454C130.12 79.9603 130.988 79.4609 131.866 79.2741C133.807 78.8652 134.814 77.2432 136.082 75.9653C136.633 75.4109 137.152 74.825 137.723 74.2922C138.955 73.146 140.967 72.743 142.227 73.2758C142.928 73.5727 143.097 73.9698 142.682 74.5714C141.488 76.3463 139.921 77.8445 138.089 78.9635C136.585 79.8679 135.03 80.6857 133.469 81.7317C134.382 81.657 135.343 81.7317 136.201 81.4761C139.787 80.4366 142.923 78.2452 145.118 75.2457C146.483 73.4114 148.009 71.7069 150.289 70.9952C153.927 69.847 158.088 71.2272 160.207 74.2077C162.026 76.7635 161.132 80.3142 157.179 81.0514C156.006 81.2697 155.435 81.1399 154.686 80.615C155.479 80.1018 156.166 79.5199 156.963 79.1503C158.693 78.3481 159.23 75.289 158.663 74.0288C157.625 71.7285 155.348 71.3393 152.855 71.5634C150.559 71.7698 148.946 73.0969 147.602 74.8329C147.442 75.0413 147.27 75.2398 147.101 75.4463C148.938 77.4477 148.13 79.7283 145.809 81.2048C143.782 82.4965 141.561 83.1708 139.155 83.5168C136.664 83.8568 134.127 83.6439 131.729 82.8936C130.235 82.4453 128.955 81.6766 128.012 80.5344C126.678 81.1694 125.424 81.9224 124.07 82.3824C120.9 83.4598 117.65 83.3359 114.434 82.4729C112.566 81.9619 110.816 81.0937 109.283 79.917C107.917 78.8927 107.372 76.6436 108.607 75.4443C108.775 75.2792 108.761 74.6736 108.593 74.4613C106.071 71.2645 103.804 70.4015 99.9498 71.1918C96.7557 71.8485 96.29 76.6967 98.9849 78.6352C99.3811 78.9163 99.4208 78.8829 101.224 79.8718V80.1844C100.881 80.2901 100.533 80.3787 100.182 80.4498C98.2676 80.7526 96.1117 79.7008 95.2854 78.0768C94.6296 76.791 95.0635 74.1664 96.2326 73.0654C98.7352 70.7062 101.646 69.4853 105.149 70.2461C107.17 70.6846 108.649 71.9546 109.976 73.4468C111.347 74.9902 112.705 76.5473 114.137 78.0375C115.425 79.3803 117.207 79.8993 118.863 80.6228C120.193 81.2126 121.546 81.1379 122.961 80.8941C118.605 79.5946 115.322 76.9601 112.808 73.2443ZM127.122 79.0068C127.464 79.0345 127.807 78.9714 128.116 78.824C128.426 78.6766 128.69 78.4502 128.882 78.168C129.074 77.8858 129.187 77.5581 129.209 77.2183C129.231 76.8785 129.162 76.5391 129.008 76.2347C128.65 75.5131 128.249 75.4876 127.621 76.0381C126.658 76.9011 126.745 77.894 127.122 79.0068Z" fill="white"/>
<path d="M135.335 31.769C134.299 32.2625 131.816 31.9774 131.134 31.3443C130.587 30.8113 130.21 30.1301 130.05 29.3857C129.89 28.6413 129.955 27.8667 130.237 27.1587C131.768 23.4743 130.988 23.7889 135.593 23.7889C135.46 22.973 135.466 22.2161 135.196 21.587C134.715 20.4211 134.757 20.2107 135.939 19.851C137.122 19.4912 138.959 18.1307 138.985 20.1852C138.997 21.1682 138.985 22.1335 138.985 23.2935C139.534 23.1617 139.976 23.0831 140.406 22.9455C144.589 21.5693 145.076 26.8618 142.898 31.1124C142.502 31.8988 141.743 31.6904 141.115 31.8496C140.533 32.001 138.49 31.2441 139.282 33.1059C139.494 33.6013 139.77 34.1105 139.795 34.6237C139.809 34.9323 139.465 35.3885 139.159 35.5516C138.588 35.8251 137.984 36.0278 137.362 36.1552C136.714 36.3145 136.221 36.1375 136.07 35.3944C135.85 34.2088 135.593 33.0292 135.335 31.769ZM141.319 29.2938C140.527 27.9667 140.705 26.3113 138.995 25.2811C138.995 26.1835 138.977 26.8775 138.995 27.5676C139.054 29.3783 138.65 29.687 141.319 29.2938ZM135.504 25.6704L135.179 25.6311C133.605 28.1751 133.409 28.295 134.939 29.3862C135.008 29.4353 135.472 29.1699 135.478 29.0382C135.533 27.9176 135.504 26.793 135.504 25.6704Z" fill="white"/>
<path d="M87.6845 52.0643C86.8919 52.5617 86.2023 53.0985 85.4315 53.4111C85.0967 53.5467 84.3378 53.3501 84.1891 53.0788C83.9454 52.6345 83.9316 51.9818 84.0425 51.4647C84.102 51.1875 84.5993 50.9457 84.948 50.8021C86.2776 50.2556 88.9328 50.3146 90.1158 50.0413C91.1303 49.8073 91.7009 50.1651 91.7188 51.2209C91.7366 52.9726 91.7188 54.7224 91.7188 56.4741L92.2637 56.5252C92.4915 55.4046 92.8779 54.2918 92.9195 53.1653C93.0325 50.1278 93.7756 50.2163 96.6745 50.464C97.4809 50.5328 97.58 51.2091 97.5998 51.8245C97.7266 56.0986 97.2491 58.1649 98.7411 60.6146C99.3356 61.5976 97.9485 61.6625 97.2174 61.8453C95.434 62.2975 94.8555 61.8807 94.5701 60.0936C94.4076 59.0732 94.1065 58.0745 93.8508 56.9971C93.2564 57.6891 93.9816 56.3562 92.2855 61.9475C92.2282 62.103 92.1355 62.2432 92.0145 62.3571C91.8934 62.4711 91.7475 62.5556 91.588 62.6042C91.3363 62.6376 90.9163 62.3722 90.7776 62.1245C90.0286 60.7719 88.8615 58.045 88.5979 57.4355C88.3582 58.7252 88.1303 60.8131 86.1548 62.1933C85.382 62.732 84.8212 62.5373 84.3853 61.749C83.3946 59.9795 83.5075 60.013 84.9639 58.4519C85.913 57.4355 87.2248 54.3842 87.6666 53.0355C87.7796 52.721 87.6845 52.3435 87.6845 52.0643Z" fill="white"/>
<path d="M107.042 30.2945C107.162 31.1163 107.111 32.0148 107.438 32.7403C107.834 33.5974 107.602 34.0457 106.843 34.2679C106.158 34.4557 105.448 34.5451 104.737 34.5333C104.073 34.5333 103.843 34.0339 103.828 33.4225C103.62 24.2018 103.705 24.8054 103.233 23.7299C102.932 23.0517 102.837 22.4855 103.703 22.1748C104.61 21.8504 107.032 20.5548 107.093 22.8747C107.121 23.903 107.093 24.9351 107.232 26.0007C107.989 25.4266 108.761 24.998 108.829 23.899C108.95 21.9192 109.368 21.5948 111.32 21.5241C112.328 21.4887 113.715 20.4978 113.525 22.047C113.307 23.8165 112.164 24.9961 110.824 26.0282C110.333 26.4037 109.756 26.6672 109.172 27.0112C109.411 27.084 109.728 27.1095 109.964 27.2629C110.392 27.5401 110.969 27.8154 111.135 28.2282C111.795 29.8777 112.562 31.3994 114.197 32.3235C114.868 32.7029 114.918 33.2298 114.462 33.8314C113.4 35.2371 112.017 35.3944 110.757 34.1302C109.552 32.9211 108.448 31.6118 107.299 30.3476L107.042 30.2945Z" fill="white"/>
<path d="M124.041 32.7127C123.549 33.1511 123.218 33.564 122.788 33.7921C122.459 33.967 122.006 33.912 121.599 33.9572C121.708 32.7206 121.667 33.1806 121.754 32.2605C120.999 33.0745 120.379 33.7567 119.741 34.4232C118.75 35.4553 117.884 34.3052 117.535 33.9592C116.226 32.6537 116.287 32.3962 117.547 31.0613C119.652 28.8357 121.342 26.3585 121.833 23.2443C121.992 22.2436 123.44 21.3904 124.409 21.7502C124.685 21.8524 124.857 22.222 125.218 22.627C126.476 22.3518 127.595 21.874 127.647 23.437C127.863 29.5022 127.199 31.6117 128.277 33.7036C128.41 33.9611 128.257 34.6748 128.119 34.7102C127.127 34.9829 126.108 35.1496 125.081 35.2076C124.197 35.2312 124.239 34.2639 124.041 32.7127ZM123.843 27.2177C123.474 28.4248 123.173 29.4098 122.79 30.6582C123.341 30.44 123.944 30.3731 124.023 30.1353C124.192 29.6619 124.263 29.1595 124.232 28.6582C124.201 28.1569 124.069 27.667 123.843 27.2177Z" fill="white"/>
<path d="M132.642 60.1604C131.436 61.5917 131.241 61.6959 129.898 61.6369C130.039 61.2221 130.163 60.8505 130.377 60.2312C130.036 60.4148 129.709 60.6231 129.399 60.8545C129.06 61.1553 128.025 63.2648 126.488 61.7903C125.283 60.6362 125.188 59.8577 126.082 58.9592C128.103 56.9322 129.648 54.6162 130.441 51.8402C130.8 50.578 132.438 50.2222 133.484 51.1246C133.595 51.2104 133.723 51.2722 133.86 51.3061C133.996 51.3399 134.138 51.3451 134.277 51.3212C136.494 50.7137 136.06 52.1272 136.084 55.8116C136.104 60.8014 136.064 59.8478 136.415 60.9233C136.657 61.6684 136.562 62.3368 135.724 62.5393C135.046 62.7025 134.275 62.793 133.621 62.6239C133.253 62.5295 132.975 61.8748 132.771 61.4226C132.634 61.1041 132.69 60.707 132.642 60.1604ZM132.561 57.9978V55.3043C132.115 56.3483 131.786 57.121 131.39 58.0568L132.561 57.9978Z" fill="white"/>
<path d="M108.712 60.3138L106.009 61.9692C105.926 61.283 105.878 60.9056 105.811 60.3728C105.288 60.9252 104.862 61.3892 104.424 61.8375C103.78 62.4921 103.027 62.498 102.389 61.8492C102.175 61.633 101.993 61.3794 101.795 61.1434C100.97 60.1427 100.972 59.9796 101.925 59.0654C103.621 57.4355 104.699 55.3849 105.874 53.3993C106.031 53.1299 105.966 52.7347 106.011 52.3986C106.184 51.1128 107.087 50.3323 108.389 50.5053C108.892 50.5721 109.352 50.9673 110.043 51.3231C111.213 50.8945 111.771 51.3015 111.801 52.8724C111.849 55.2316 111.921 57.5908 112.017 59.9501C112.035 60.3688 112.227 60.7876 112.38 61.1906C112.681 61.9928 112.334 62.4155 111.587 62.6298C109.746 63.1567 108.938 62.5649 108.712 60.3138ZM108.302 55.9217H107.941C107.748 56.598 107.557 57.2743 107.366 57.9506L107.565 58.1472C108.425 57.5437 108.302 58.1944 108.302 55.9217Z" fill="white"/>
<path d="M149.848 26.911C150.462 26.5178 150.937 25.9004 153.147 25.6586C153.464 25.6232 154.07 25.8277 154.096 25.9928C154.466 28.3521 152.744 28.295 151.795 28.4209C151.092 28.5133 150.408 28.7099 149.814 28.8396V33.3182L150.095 33.4067C150.371 32.8169 150.69 32.2271 150.908 31.6157C151.492 29.9268 153.034 30.5756 154.756 30.9472C154.472 31.5645 154.274 32.2428 153.886 32.7894C152.517 34.7239 149.776 34.6099 147.585 34.547C146.935 34.5273 146.382 34.3504 146.37 33.5129C146.332 31.1104 146.261 28.7099 146.225 26.3074C146.212 25.3991 146.326 24.4849 145.7 23.6867C145.581 23.5353 145.55 23.0969 145.639 23.0399C146.863 22.2535 148.984 20.5666 149.998 22.6997C150.702 21.4199 152.721 21.064 154.754 21.8465C155.348 24.0799 152.667 24.3158 150.43 24.363C149.836 24.3748 149.637 24.5793 149.713 25.1494C149.8 25.8198 149.818 26.4902 149.848 26.911Z" fill="white"/>
<path d="M143.745 56.189C143.095 57.8307 142.266 60.2902 141.034 61.9279C140.792 62.2483 139.976 62.5649 139.774 62.4135C139.198 61.9771 138.74 61.4074 138.438 60.7542C138.301 60.4573 138.557 59.6748 138.834 59.547C140.317 58.8687 140.319 57.463 140.513 56.2421C141.032 53.0061 139.847 51.0617 141.678 50.7255C142.074 50.6547 142.415 50.3952 142.801 50.3146C144.03 50.0629 144.319 50.2084 144.927 51.2858L145.492 51.099C146.6 50.7176 147.384 51.215 147.422 52.3612C147.62 58.5837 147.422 58.7016 147.943 60.3059C148.262 61.2987 148.001 61.8571 146.99 62.1559C143.544 63.1743 144.188 60.1526 144.151 57.3372C144.151 56.9538 144.069 56.5724 144.026 56.189H143.745Z" fill="white"/>
<path d="M155.895 55.442C154.811 57.6302 153.836 59.7417 152.725 61.7785C152.16 62.8146 151.365 62.789 150.628 61.9023C149.778 60.878 149.996 60.0326 151.058 59.1814C151.98 58.4421 152.316 55.4459 152.425 54.284C152.453 53.727 152.386 53.1694 152.227 52.6345C152.029 51.8658 152.227 51.2386 152.907 50.9044C153.573 50.5727 154.289 50.3522 155.027 50.2516C155.524 50.1848 156.729 51.2091 157.175 51.0951C158.338 50.8002 159.099 51.3035 159.131 52.5165C159.149 53.2282 159.111 53.9419 159.131 54.6516C159.131 54.7421 159.361 60.0425 159.416 60.1152C160.569 61.688 158.794 62.2779 156.816 62.2661C156.555 62.2661 156.107 61.6389 156.075 61.2693C155.943 59.726 155.895 57.1111 155.895 55.442Z" fill="white"/>
<path d="M118.752 52.3179C117.008 54.2722 117.345 56.5803 117.563 58.8058C117.629 59.49 118.181 60.1545 118.6 60.7719C118.73 60.9685 119.146 60.9685 119.683 61.1258C119.683 57.3628 119.353 56.6353 121.378 56.5764C123.773 56.5036 124.064 56.9224 123.161 59.0929C122.402 60.9351 121.179 62.093 119.047 62.1481C116.915 62.2031 115.241 60.5654 114.543 59.0477C113.636 57.0816 113.715 54.9976 114.024 52.9196C114.153 52.0525 114.647 51.5433 115.621 51.6062C115.87 51.6153 116.113 51.5342 116.305 51.3782C118.31 49.6304 121.57 49.7916 123.468 51.4922C123.997 51.9641 123.957 52.4752 123.426 52.8684C121.73 54.0834 121.114 54.7106 118.752 52.3179Z" fill="white"/>
<path d="M165.097 54.6988C166.591 54.1247 169.06 52.6482 170.051 55.8686C170.756 58.1551 169.325 61.2241 166.985 61.8551C165.628 62.2228 164.112 62.0675 162.672 62.0223C162.376 62.0124 161.867 61.4482 161.855 61.1238C161.764 58.5955 161.54 56.0337 161.867 53.5487C161.994 52.5657 163.425 51.7675 164.261 50.8828C165.255 51.9385 165.097 50.8552 165.097 54.6988ZM165.248 61.519C167.34 58.9297 167.336 58.3045 165.248 55.383V61.519Z" fill="white"/>
<path d="M174.311 56.4761C174.311 59.5765 174.891 63.0269 172.03 62.3938C171.715 62.325 171.414 61.6369 171.339 61.1887C171.218 60.4947 171.311 59.7672 171.289 59.0555C171.091 52.6954 170.921 51.449 171.452 51.2917C174.646 50.35 174.287 50.8749 174.287 56.4761H174.311Z" fill="white"/>
<path d="M239.462 29.8974C235.556 29.1287 232.095 30.4026 228.564 31.1104C228.27 31.1694 227.858 31.2421 227.735 31.4466C227.141 32.4532 225.974 32.4591 225.096 32.9486C224.866 33.0764 224.272 32.8936 224.066 32.6616C223.497 32.0207 222.847 31.9892 222.112 32.1622C191.427 39.3795 192.747 39.3205 192.531 38.2766C192.332 37.3152 193.854 37.266 212.767 33.4736C223.666 31.2893 223.679 31.5331 223.929 30.3279C223.971 30.1313 224.256 29.7853 224.343 29.8109C225.292 30.0783 226.2 29.4766 227.232 29.862C229.584 30.7388 236.88 27.9392 238.792 26.9877C240.657 26.0597 244.41 25.7176 246.409 25.1416C248.694 24.481 249.086 27.3573 247.412 28.0159C246.528 28.3599 245.959 28.4602 239.462 29.8974Z" fill="white"/>
<path d="M218.775 17.1418C217.255 18.5789 217.543 19.2906 216.453 17.3384C183.78 29.8403 188.096 28.8062 186.281 28.0611C187.436 25.8591 195.315 24.5498 215.508 16.9747C215.853 16.8469 216.189 16.3337 216.267 15.9484C216.703 13.7622 218.218 16.318 218.557 14.7452C218.573 14.6744 218.999 14.58 219.055 14.6449C219.859 15.5925 220.779 14.9418 221.48 14.6626C234.066 9.65122 222.086 13.8762 237.827 7.46106C238.885 7.02854 239.5 7.38439 239.995 8.61119C240.367 9.53325 239.83 10.0484 239.072 10.3413C223.85 16.2394 233.722 10.8426 220.477 16.0683C219.455 16.4694 220.067 18.284 218.775 17.1418Z" fill="white"/>
<path d="M246.24 75.7235C243.665 74.9076 240.468 74.9587 237.702 73.3643C234.655 71.6067 228.942 70.4054 226.983 70.6492C226.489 70.7121 225.992 70.7672 225.496 70.7967C225.272 70.8104 225.001 70.663 224.823 70.7436C224.097 71.0719 223.753 70.8478 223.654 70.0948C223.545 69.2809 222.881 69.1531 222.239 69.0233C189.509 62.4155 193.761 63.3513 192.665 62.1579C194.308 61.4187 190.404 60.707 219.825 67.8417C222.996 68.6104 223.778 69.0213 224.518 67.9754C224.623 67.826 224.902 67.6432 225.029 67.6864C225.821 67.9499 226.909 68.058 227.278 68.6183C228.134 69.9237 229.445 69.965 230.646 70.2147C233.575 70.8203 236.5 71.3766 239.563 71.1741C240.791 71.0935 246.94 72.6722 247.146 72.7293C248.281 73.0419 248.696 73.6061 248.533 74.4889C248.406 75.2124 247.58 75.7491 246.24 75.7235Z" fill="white"/>
<path d="M218.036 84.2639C217.428 84.243 216.821 84.1852 216.219 84.0909C215.956 84.0378 215.512 83.6623 215.545 83.5601C216.011 82.1386 214.909 82.4473 197.373 77.9765C184.327 74.65 184.785 74.8309 185.037 73.9855C185.358 72.9258 184.854 73.0379 198.855 77.1882C200.809 77.7681 202.715 78.6273 204.709 78.9242C206.502 79.1896 213.491 81.2519 214.111 81.4957C214.989 81.8417 215.853 82.172 216.568 81.191C216.802 80.8705 216.826 80.6503 219.473 82.2251C219.82 82.4217 220.026 82.9388 220.38 83.0548C223.777 84.1617 227.204 85.0405 230.831 85.184C232.812 85.2626 234.659 86.0451 239.042 87.1854C239.906 87.4095 240.346 87.9227 240.159 88.8113C239.714 90.9307 237.782 90.0755 234.532 89.2281C231.344 88.3925 230.718 88.0858 228.905 87.0124C226.265 85.4514 221.014 84.2305 220.781 84.1558C219.806 83.8373 218.912 83.7173 218.135 84.6138L218.036 84.2639Z" fill="white"/>
<path d="M215.472 53.5113L215.597 53.5231C217.876 53.7197 217.911 53.7197 217.901 51.443C217.901 49.6736 217.818 47.9042 217.703 46.1466C217.646 45.3031 218.133 44.9473 218.773 44.788C219.284 44.6622 219.784 44.8057 219.78 45.5469C219.718 54.2309 219.978 52.1311 219.148 53.5467H222.286C222.037 52.7839 222.027 54.05 222.021 45.9283C222.021 45.6 221.993 45.1144 222.183 44.9748C222.614 44.6777 223.11 44.4851 223.63 44.4125C223.723 44.3988 224.054 45.0987 224.064 45.4742C224.111 47.3773 224.095 49.2804 224.086 51.1756C224.086 52.2412 223.82 52.6679 222.784 53.415C223.61 53.643 223.798 54.337 223.525 54.9013C223.224 55.5304 221.898 55.4911 214.806 55.552C214.458 55.552 213.927 55.5658 213.796 55.3692C213.11 54.3331 213.972 52.8743 213.994 51.5315C214.014 49.7306 213.895 47.9297 213.814 46.1308C213.772 45.2383 214.386 44.9375 215.072 44.8745C215.757 44.8116 215.878 45.3228 215.864 45.9441C215.73 54.2466 216.074 51.7065 215.472 53.5113Z" fill="white"/>
<path d="M194.371 53.5939H196.844C196.844 51.506 196.844 49.4652 196.844 47.4068C196.844 47.0667 196.731 46.7207 196.769 46.3864C196.816 45.9716 196.858 45.4821 197.102 45.1891C197.3 44.9493 197.954 44.7546 198.122 44.8903C198.836 45.4585 198.519 46.5398 198.614 52.3219C198.626 52.9943 198.443 53.3737 197.706 53.5506C201.132 53.759 200.993 53.9694 200.982 52.6817C200.964 50.4168 200.925 48.1513 200.863 45.8851C200.845 45.2383 201.019 44.7311 201.681 44.5738C202.343 44.4165 202.896 44.5738 202.894 45.4369C202.894 53.5821 203.092 51.2976 201.915 53.474C202.858 53.6588 202.509 54.4904 202.438 55.1176C202.408 55.3948 200.456 55.4302 193.438 55.5344C193.173 55.5344 192.707 55.4459 192.673 55.3122C192.548 54.8168 192.336 54.1129 192.574 53.8043C193.099 53.124 192.97 52.371 192.996 51.7026C193.052 49.7503 192.844 47.7902 192.905 45.8379C192.917 45.4663 193.68 45.1164 194.094 44.7566C194.716 45.8969 194.78 44.3831 194.688 52.2747C194.673 52.6699 194.5 53.065 194.371 53.5939Z" fill="white"/>
<path d="M247.802 49.3846C248.131 49.5498 248.349 49.7562 248.557 49.7464C250.427 49.6717 248.912 52.1685 251.668 53.9065C252.47 54.4137 251.616 54.7932 251.4 55.1844C251.091 55.7447 250.641 55.7054 250.231 55.2945C249.096 54.1582 247.929 53.0415 247.483 51.4175C247.433 51.2347 247.285 51.0754 246.932 50.8965C246.889 51.7734 246.835 52.6502 246.807 53.529C246.795 53.8947 246.974 54.339 246.819 54.6064C246.635 54.9269 246.209 55.1687 245.828 55.2926C245.708 55.3319 245.349 54.9269 245.234 54.6654C244.752 53.5506 245.339 50.0118 244.838 46.5005C244.689 45.4447 244.909 44.5738 246.791 44.8274V49.192C248.022 48.3073 248.557 47.4874 248.575 46.2646C248.601 44.9788 249.352 44.4047 250.598 44.5895C250.778 44.6151 251.036 45.1538 250.994 45.4211C250.772 47.2594 249.28 48.3033 247.802 49.3846Z" fill="white"/>
<path d="M209.336 53.244L207.804 54.0638C207.659 53.5861 207.568 53.2774 207.453 52.9058C206.924 53.6313 206.508 54.3174 205.965 54.8836C205.779 55.0802 205.172 55.1196 204.943 54.9623C203.514 53.9793 205.052 53.4366 206.726 49.5734C207.408 48.0006 207.518 45.5509 208.26 45.1125C208.656 44.8805 209.296 44.6426 209.605 45.3936C209.631 45.435 209.668 45.4693 209.71 45.4936C209.753 45.518 209.801 45.5315 209.851 45.5332C211.507 45.3858 211.202 46.7128 211.279 47.5641C211.477 49.825 211.133 51.1403 211.513 54.5828C211.604 55.3968 211.315 55.8647 210.469 55.9708C209.567 56.0809 209.5 55.5147 209.478 54.8502C209.464 54.3095 209.385 53.7689 209.336 53.244ZM209.296 46.8819L209.127 46.9311C208.731 48.4823 208.323 50.0295 207.939 51.5827C207.826 52.0309 207.633 52.5952 208.359 52.6817C208.975 52.7564 209.464 52.4851 209.484 51.7734C209.563 50.1405 209.5 48.5041 209.296 46.8819Z" fill="white"/>
<path d="M229.509 47.8236C227.712 52.7583 228.592 51.6318 226.79 54.9917C226.666 55.2218 226.378 55.3653 226.166 55.5481C225.992 55.2906 225.726 55.0527 225.667 54.7617C225.598 54.4413 225.576 53.9144 225.764 53.763C227.246 52.5834 226.923 51.1226 226.963 46.5142C226.963 45.3975 227.403 44.8647 228.457 44.621C228.554 44.5993 228.655 44.5325 228.746 44.558C229.404 44.7546 229.667 45.4899 230.605 45.5135C231.58 45.5371 231.199 46.7285 231.263 47.452C231.366 48.8558 231.574 52.023 231.685 54.0874C231.72 54.7519 231.637 55.2866 230.765 55.3594C229.812 55.438 229.725 54.8325 229.721 54.1798C229.703 52.084 229.721 49.9902 229.721 47.8885L229.509 47.8236Z" fill="white"/>
<path d="M235.463 45.7966C235.77 48.8164 235.463 51.8658 235.638 54.8915C236.868 54.8286 237.665 53.7984 237.453 52.5145C237.241 51.2307 236.66 49.6599 236.858 49.3021C237.114 48.8812 237.47 48.5299 237.897 48.2797C237.994 48.2227 238.541 48.6729 238.689 48.9914C239.791 51.2012 239.357 54.0559 237.078 54.9701C236.343 55.2608 235.549 55.372 234.762 55.2945C234.381 55.2513 233.797 54.5867 233.771 54.1817C233.645 52.0491 233.645 49.911 233.771 47.7784C233.821 47.0608 234.502 46.3884 234.897 45.6944L235.463 45.7966Z" fill="white"/>
<path d="M242.137 45.2186C242.519 47.4677 242.297 44.3103 242.392 54.4943C242.392 55.0684 242.317 55.5206 241.642 55.5422C240.966 55.5638 240.562 55.1883 240.54 54.514C240.526 54.0205 240.516 47.9003 240.54 46.5653C240.552 45.3189 240.809 45.1203 242.137 45.2186Z" fill="white"/>
<path d="M66.9601 30.5127C66.5044 30.4655 66.0288 30.4813 65.5969 30.3574C52.3546 26.5394 54.9583 26.8186 53.3969 27.548C55.0296 29.2132 53.6129 27.7033 66.871 31.9499L66.8531 32.2035C64.8555 32.0232 62.8816 31.6411 60.9622 31.0632C57.9325 30.1294 54.5997 30.2473 51.8177 28.472C49.6915 27.1154 50.4306 25.1769 42.5047 23.3721C40.5232 22.9219 17.116 17.3934 16.9654 15.0421C16.9179 14.3068 17.7283 14.0217 18.404 14.118C22.3115 14.6842 21.0433 14.3913 36.1561 19.1746C38.2247 19.8293 40.3964 20.2835 42.3363 21.2115C46.9551 23.4232 50.177 23.6552 53.9814 22.8924C55.6538 22.5562 57.2687 22.8708 58.8103 23.4134C60.1478 23.8813 66.9344 26.4018 67.7745 26.8736L67.7369 27.196C67.2673 27.1587 66.7659 27.2118 66.33 27.0702C56.0957 23.7987 55.3427 22.973 55.4576 24.8289L67.7032 28.6391C67.6695 28.7689 67.6358 28.8967 67.6041 29.0323C55.2159 26.1501 56.6049 24.8565 54.3758 25.9201C55.6578 26.9267 65.8683 29.917 66.9918 30.2159L66.9601 30.5127Z" fill="white"/>
<path d="M65.4899 68.2211C54.9881 71.8386 54.5918 70.9578 52.7371 72.4854C53.3316 73.6768 53.0839 73.2718 63.5996 70.022C64.0355 69.9215 64.4788 69.8557 64.9252 69.8254L65.0005 70.1419L52.8501 74.0032C53.1949 75.4777 53.0324 75.0531 63.8711 71.8406C64.2018 71.7654 64.5375 71.7142 64.8757 71.6872L64.9411 72.0175C60.9246 73.1696 60.7502 73.3033 53.8983 75.4148C52.3507 75.8925 53.3038 77.025 54.4154 76.6868C54.4154 76.6868 58.7331 75.2202 65.8724 73.0123L66.0031 73.3446C45.7643 82.2664 53.3217 75.2556 43.8859 78.2911C14.4787 87.7457 18.2871 87.1304 15.7587 86.3656C16.5176 84.5962 14.5857 84.5195 32.1139 79.4098C42.8139 76.2917 45.9089 77.4968 50.4664 72.8236C52.6599 70.5764 55.5687 70.0004 58.4854 69.4283C60.9662 68.9407 59.4365 69.0862 65.381 68.0107L65.4899 68.2211Z" fill="white"/>
<path d="M51.6334 61.6074C51.8905 61.5629 52.1353 61.4653 52.352 61.321C52.5687 61.1768 52.7526 60.989 52.8916 60.7699C54.136 58.3458 58.8539 56.7494 61.9945 58.1649C64.0275 59.0811 64.3149 61.4738 62.8704 62.8047C60.8176 64.7 57.3222 65.4766 54.782 64.3461C54.1578 64.0689 53.6921 63.4614 53.0937 63.1016C52.5409 62.7713 51.885 62.3152 51.3104 62.3545C23.4211 64.6646 6.737 68.9112 6.70529 66.8587C6.67557 65.3743 8.59166 65.4156 19.3967 64.4149" fill="white"/>
<path d="M9.58841 28.8613C20.2389 29.6319 18.1246 31.4721 50.6348 37.3368C51.5581 37.5039 52.3567 37.4154 53.1849 36.7568C55.7906 34.6846 60.4907 35.3 62.484 37.8696C62.6782 38.1248 62.8194 38.4156 62.8996 38.7252C62.9798 39.0349 62.9974 39.3572 62.9514 39.6737C62.9053 39.9901 62.7965 40.2943 62.6313 40.5688C62.466 40.8433 62.2476 41.0825 61.9887 41.2728C60.3242 42.4386 58.4497 42.5428 56.5475 42.1575C54.5958 41.7643 53.0066 40.8462 52.2318 38.8487C52.0931 38.4928 51.5383 38.1684 51.1163 38.0623C41.3317 35.7424 40.337 35.8328 35.3219 34.9442C7.80112 30.0684 9.23373 31.3444 9.58841 28.8613Z" fill="white"/>
<path d="M5.66109 53.4877H8.07453C8.07453 45.199 8.09435 48.6985 7.80307 46.9094C7.77136 46.7128 7.78325 46.3629 7.88431 46.3196C8.38752 46.0946 8.91009 45.915 9.44571 45.7829C9.5823 45.9708 9.66886 46.1899 9.69736 46.4199C9.7786 53.5487 9.71123 52.1587 9.26738 53.4445H11.9622C11.9622 51.2288 11.871 48.8656 11.774 46.4965C11.7541 46.0542 12.6498 45.1616 13.161 45.2481C14.1359 45.4074 13.4285 46.0149 13.6524 50.7785C13.7 51.8186 13.7257 52.776 12.7924 53.2322C13.0401 53.6804 13.3988 54.05 13.4265 54.4413C13.478 55.208 13.0738 55.4872 12.299 55.1274C11.9892 55.0058 11.6571 54.9496 11.3242 54.9623C4.4504 54.9131 5.97416 54.9269 4.40087 55.499C4.20272 55.0763 3.96296 54.5553 3.8302 54.2741C4.46031 52.3769 4.42464 54.3036 4.18092 46.8032C4.14724 45.7593 5.21922 46.1721 5.6274 45.7121C5.82555 45.9716 6.17231 46.2272 6.17825 46.4985C6.22779 48.4999 6.23374 50.5053 6.17825 52.5067C6.1842 52.8331 5.84537 53.1594 5.66109 53.4877Z" fill="white"/>
<path d="M19.585 53.1575L18.0889 54.2742L17.7779 53.1142C17.4133 53.5585 17.1656 53.9498 16.8307 54.2447C16.4958 54.5396 16.3512 55.3142 15.6854 54.7244C15.1564 54.2565 14.8017 53.8259 15.3981 53.0395C16.6524 51.3841 17.8631 49.6422 17.974 47.4776C18.0216 46.4553 18.2039 45.7298 19.3987 45.6826C19.8723 46.4808 19.9456 46.5064 21.2375 46.2488C21.5744 48.1618 21.3524 45.659 21.4495 52.7053C21.4495 53.3128 21.19 53.9989 21.8874 54.4747C21.9925 54.5474 21.9291 55.1333 21.8359 55.1628C21.3036 55.3476 20.7482 55.4587 20.1854 55.4931C20.0546 55.4931 19.8307 55.0547 19.7772 54.7912C19.6622 54.282 19.6464 53.7532 19.585 53.1575ZM19.692 52.4477C19.7791 50.9398 19.9535 49.4141 19.4324 47.7686C18.9866 49.4535 18.5962 50.9142 18.192 52.4477H19.692Z" fill="white"/>
<path d="M46.9928 47.6251C46.9651 50.4365 46.224 52.9923 44.399 55.3732C44.0523 54.7932 43.8244 54.4098 43.5629 53.9694C45.6494 52.8036 44.8865 50.6862 45.1084 46.8917C45.1282 46.53 45.4671 46.1859 45.6612 45.834C46.2002 46.1997 47.0087 44.8883 47.4783 46.1466C47.5595 46.3648 48.3501 46.3216 49.115 46.4494C49.124 49.0067 49.2802 51.5615 49.5826 54.1012C49.6757 54.9426 49.0218 54.9289 48.5483 55.0036C47.8468 55.1117 47.502 54.7067 47.508 54.0048C47.5536 47.6781 47.5615 49.2981 47.288 47.6172L46.9928 47.6251Z" fill="white"/>
<path d="M26.211 49.882C26.3993 49.3866 26.1991 49.593 26.8808 49.0504C26.9992 49.1899 27.1004 49.343 27.182 49.5065C27.5168 50.46 27.8893 51.4037 28.139 52.3789C28.3669 53.2675 29.001 53.3009 29.7757 53.3068L29.1436 55.4419C27.4911 54.7538 26.8213 53.3953 26.209 51.7596C25.9356 52.6305 25.8345 53.4071 25.4581 54.0126C25.1232 54.5513 24.4812 54.9032 23.7778 55.5068L23.3815 53.4759C24.9171 53.0159 25.682 51.8402 25.1846 50.4463C24.7665 49.2667 24.0889 48.1873 23.4607 46.9349L25.141 45.6354C25.5155 47.1414 25.8563 48.4783 26.211 49.882Z" fill="white"/>
<path d="M36.9803 51.738C37.0576 52.8075 37.1567 53.877 37.1924 54.9505C37.1924 55.1471 36.9586 55.4911 36.7961 55.5127C36.3364 55.5717 35.8053 55.613 35.409 55.438C34.9612 55.2414 34.9275 54.2584 35.0127 49.8958C35.0127 49.5517 35.0742 49.0583 35.2981 48.901C35.7098 48.6437 36.1866 48.5073 36.6732 48.5078C36.7921 48.5078 37.0101 49.1487 37.0378 49.5065C37.0953 50.2477 37.0556 50.9948 37.0556 51.7399L36.9803 51.738Z" fill="white"/>
<path d="M41.3694 47.4756C41.3694 52.8114 41.3575 53.069 41.3694 54.3331C41.3694 54.8659 41.2287 55.1707 40.6243 55.1608C40.0913 55.1608 39.5306 55.21 39.5246 54.4649C39.4751 46.9271 39.4057 48.6946 40.8106 47.2574L41.3694 47.4756Z" fill="white"/>
<path d="M55.3527 53.6863C55.2932 51.2386 55.7787 48.6808 53.7913 46.5889L55.747 45.4899C57.4312 49.3728 57.2648 53.2321 55.3527 53.6863Z" fill="white"/>
<path d="M58.3031 46.528C60.0725 45.7416 60.0725 45.7416 60.0725 47.684C60.0725 49.6854 60.0587 51.6849 60.0725 53.6843C60.0725 54.1955 60.027 54.7637 59.4424 54.6673C59.1254 54.6201 58.6895 54.0087 58.6637 53.6293C58.5706 52.253 58.6637 50.8493 58.6122 49.4633C58.5845 48.5176 58.42 47.5778 58.3031 46.528Z" fill="white"/>
<path d="M52.9293 54.921C50.4762 53.1889 50.3534 49.3335 52.0416 47.2967C52.1741 47.1799 52.3238 47.0837 52.4855 47.0116C52.5793 47.1616 52.6463 47.3266 52.6836 47.4992C52.7034 49.306 52.4676 51.097 53.1532 52.3966C53.8388 53.6961 53.8725 53.645 52.9293 54.921Z" fill="white"/>
<path d="M35.4289 45.5843C41.2584 45.9126 39.5504 45.5666 40.8066 46.1289C40.6085 46.3943 40.4658 46.7993 40.2122 46.8996C38.1772 47.6762 37.4718 47.5759 35.2268 47.4186C35.1317 47.4186 34.9533 47.0647 34.991 46.9212C35.1237 46.3747 35.3358 45.8458 35.4289 45.5843Z" fill="white"/>
<path d="M61.7073 49.6677C61.7073 50.9948 62.597 50.23 63.1181 50.2575C64.3486 51.854 64.3506 52.9412 62.3969 54.1896C62.2284 54.2958 61.9273 54.1896 61.6855 54.1896C61.6954 53.9124 61.5924 53.5329 61.737 53.3757C62.7278 52.2884 61.6439 51.5138 61.3209 50.6665C61.101 50.0944 60.9048 49.7326 61.739 49.6972L61.7073 49.6677Z" fill="white"/>
<path d="M61.739 49.7012C61.6974 48.4449 61.9589 47.1237 60.8275 46.0267C61.0779 45.9583 61.3208 45.8654 61.5527 45.7495C62.3691 45.2127 62.8189 45.3307 63.1201 46.296C63.5857 47.7882 63.2449 48.671 61.7073 49.6677L61.739 49.7012Z" fill="white"/>
<path d="M27.9785 47.5897C27.7857 47.6452 27.5842 47.6652 27.3841 47.6487C27.1666 47.596 26.9753 47.4676 26.8451 47.2869C26.7163 47.0647 27.3008 46.3334 27.6714 46.18C28.1443 46.0128 28.6274 45.8756 29.1179 45.7691C29.1179 46.3196 29.2268 46.8996 29.0762 47.4029C29.0168 47.5995 28.3907 47.6408 28.0241 47.7529L27.9785 47.5897Z" fill="white"/>
</g>
<defs>
<clipPath id="clip0">
<rect width="257" height="100" fill="white"/>
</clipPath>
</defs>
</svg>
