<svg width="17" height="16" viewBox="0 0 17 16" fill="none" xmlns="http://www.w3.org/2000/svg">
<path d="M0.59375 0.78125C0.40625 0.8125 0.28125 0.90625 0.15625 1.03125C0.0625 1.1875 0 1.34375 0 1.5C0 4.125 0.65625 6.5625 1.96875 8.8125C3.28125 11 5 12.75 7.1875 14.0312C9.4375 15.3438 11.875 16 14.5 16C14.6875 16 14.8438 15.9688 14.9688 15.8438C15.125 15.75 15.2188 15.5938 15.2188 15.4062L15.9688 12.1562C16.0312 12 16 11.8438 15.9062 11.6562C15.8438 11.5 15.7188 11.375 15.5312 11.3125L12.0312 9.8125C11.9062 9.75 11.75 9.75 11.5625 9.78125C11.4062 9.8125 11.2812 9.90625 11.1562 10.0312L9.625 11.9062C8.40625 11.3438 7.3125 10.5938 6.375 9.625C5.4375 8.6875 4.65625 7.59375 4.09375 6.375L5.96875 4.8125C6.09375 4.71875 6.1875 4.59375 6.21875 4.4375C6.28125 4.28125 6.25 4.125 6.1875 3.9375L4.6875 0.4375C4.625 0.3125 4.53125 0.1875 4.34375 0.09375C4.1875 0.03125 4.03125 0 3.84375 0.03125L0.59375 0.78125Z" fill="#FFEE53"/>
</svg>
