<svg width="28" height="17" viewBox="0 0 28 17" fill="none" xmlns="http://www.w3.org/2000/svg">
    <path d="M27.8869 1.25893C27.8869 1.25893 27.6837 0.678571 26.4215 0.838169L22.2429 0.867188C21.9237 0.82366 21.6915 0.95424 21.6915 0.95424C21.6915 0.95424 21.4449 1.08482 21.3288 1.40402C20.6469 3.1596 19.7764 4.66853 19.7764 4.66853C17.9192 7.83147 17.1648 8.00558 16.8601 7.80246C16.1491 7.35268 16.3378 5.97433 16.3378 4.98772C16.3378 1.91183 16.802 0.635044 15.4237 0.301338C14.9739 0.199775 14.6402 0.127231 13.465 0.112723C11.9706 0.098213 10.7083 0.112723 9.99735 0.460938C9.51856 0.693079 9.15583 1.2154 9.37347 1.24442C9.64914 1.28795 10.273 1.41853 10.6067 1.8683C10.6067 1.8683 10.9694 2.46317 11.0275 3.76897C11.1871 7.3817 10.4471 7.83147 10.4471 7.83147C9.88128 8.13616 8.89467 7.62835 7.44378 4.63951C7.44378 4.63951 6.60226 3.1596 5.94936 1.5346C5.83329 1.22991 5.60114 1.07031 5.60114 1.07031C5.60114 1.07031 5.33998 0.867188 4.96275 0.80915L0.987305 0.838169C0.37793 0.838169 0.160296 1.11384 0.160296 1.11384C0.160296 1.11384 -0.0573382 1.34598 0.145787 1.82478C3.2507 9.12277 6.79088 12.779 6.79088 12.779C6.79088 12.779 10.0264 16.1596 13.6971 15.9275H15.3657C15.8735 15.8839 16.1346 15.6083 16.1346 15.6083C16.1346 15.6083 16.3668 15.3471 16.3523 14.8683C16.3232 12.6339 17.3679 12.3002 17.3679 12.3002C18.3835 11.981 19.6893 14.4621 21.0822 15.4196C21.0822 15.4196 22.1413 16.1451 22.9393 15.9855L26.6536 15.9275C28.6123 15.9129 27.6837 14.2879 27.6837 14.2879C27.6112 14.1574 27.1469 13.1562 24.9125 11.0815C22.5911 8.91964 22.8958 9.26786 25.7105 5.52455C27.4226 3.24665 28.1045 1.85379 27.8869 1.25893Z" fill="white"/>
</svg>